# xmcd CD database file
#
# Track frame offsets:
#	150
#	19362
#	45860
#	72292
#	90937
#	132240
#	154455
#	174845
#	193875
#	217265
#	239662
#	271827
#	290100
#
# Disc length: 4238 seconds
#
# Revision: 2
# Processed by: cddbd v1.5.2PL0 Copyright (c) Steve Scherf et al.
# Submitted via: CDex 1.77
#
DISCID=c2108c0d
DTITLE=Jimmy Dawkins - Kant Sheck Dees Bluze
DYEAR=1991
DGENRE=Blues
TTITLE0=I Ain't Got It
TTITLE1=Rockin D. Blues
TTITLE2=Made The Hard Way
TTITLE3=A Love Like That
TTITLE4=Kant Sheck Dees Bluze
TTITLE5=Gittar Rapp
TTITLE6=Too Bad Baby
TTITLE7=My Man Loves Me
TTITLE8=Get On The Ball
TTITLE9=Wes Cide Bluze
TTITLE10=Beetin Nockin Ringin
TTITLE11=Luv Sumbody
TTITLE12=Gotta Hold On
EXTD=YEAR: 1991
EXTT0=
EXTT1=
EXTT2=
EXTT3=
EXTT4=
EXTT5=
EXTT6=
EXTT7=
EXTT8=
EXTT9=
EXTT10=
EXTT11=
EXTT12=
PLAYORDER=
